<?xml version="1.0" standalone="no"?><!DOCTYPE svg PUBLIC "-//W3C//DTD SVG 1.1//EN" "http://www.w3.org/Graphics/SVG/1.1/DTD/svg11.dtd"><svg t="1640337895737" class="icon" viewBox="0 0 1024 1024" version="1.1" xmlns="http://www.w3.org/2000/svg" p-id="10509" xmlns:xlink="http://www.w3.org/1999/xlink" width="400" height="400"><defs><style type="text/css"></style></defs><path d="M71.683121 0l0 1023.992837 440.317391-217.597378 440.315344 217.597378L952.315856 0 71.683121 0zM499.715807 571.498188c-17.829962-2.409869-27.948343-2.891843-48.190222-3.373817l-17.349012 0 0 34.215027c0 24.577596 0.964971 37.10687 3.855791 54.938879l-68.430053 0c2.89082-16.866015 3.855791-31.806181 3.855791-55.901803l0-33.251079-133.487313 0c-28.432364 0-43.85348 0.481974-60.237521 1.926872l0-59.273574c16.384041-17.829962 21.68473-24.095622 38.551768-44.335454l114.211429-139.75195c21.203779-25.540521 28.914338-35.659925 39.99769-53.00996l65.05726 0c-2.89082 27.95039-3.373817 44.817428-3.373817 81.442324l0 158.065933 16.868061 0c19.274861 0 30.84121-0.964971 48.670149-3.373817L499.715807 571.498188zM800.89932 628.363939c-25.540521 24.577596-63.610315 36.624896-115.174354 36.624896-39.515716 0-78.068507-9.639477-101.200182-25.060593-19.276907-13.011247-33.252102-31.32216-42.406536-54.936832-4.338788-11.084375-6.26566-20.239832-9.15648-39.998713l69.392978-7.226538c1.928919 21.68473 4.818715 31.32216 13.494244 42.406536 13.975195 18.311936 39.034765 28.432364 70.357949 28.432364 48.191245 0 77.105583-21.68473 77.105583-57.828675 0-19.758881-9.15648-36.142922-24.096646-44.335454-14.456146-7.710558-17.347989-8.192532-83.850147-23.613649-36.141899-8.192532-55.419829-15.90309-72.767818-29.396312-24.57555-19.276907-37.105846-45.780352-37.105846-78.068507 0-66.984132 53.973908-110.356662 136.86113-110.356662 54.936832 0 96.380443 16.866015 119.994092 48.672196 12.045253 15.90309 17.829962 30.359236 23.611602 55.901803l-68.911004 8.192532c-2.891843-16.385064-6.26566-24.577596-14.458192-34.217073-12.529273-14.938119-33.733053-23.130652-60.236498-23.130652-41.926608 0-70.358972 21.203779-70.358972 52.527986 0 20.237785 10.601378 34.215027 32.769105 43.852457 10.601378 4.336741 14.457169 5.300689 67.94808 17.347989 38.069794 8.192532 61.202492 17.350035 78.550481 29.398358 27.469439 20.237785 39.998713 46.7443 39.998713 82.887222C831.260602 580.654668 820.657178 608.605058 800.89932 628.363939z" p-id="10510"></path><path d="M251.053117 513.670536l122.885935 0 0-99.755284c0-22.648678 0.481974-38.069794 2.408846-57.828675-9.63743 13.976218-15.420093 21.686777-32.769105 42.890556L251.053117 513.670536z" p-id="10511"></path></svg>