<?xml version="1.0" standalone="no"?><!DOCTYPE svg PUBLIC "-//W3C//DTD SVG 1.1//EN" "http://www.w3.org/Graphics/SVG/1.1/DTD/svg11.dtd"><svg t="1637312321475" class="icon" viewBox="0 0 1024 1024" version="1.1" xmlns="http://www.w3.org/2000/svg" p-id="4244" xmlns:xlink="http://www.w3.org/1999/xlink" width="300" height="300"><defs><style type="text/css"></style></defs><path d="M979.2 1017.6H89.6c-44.8 0-83.2-38.4-83.2-83.2V51.2C6.4 32 25.6 12.8 44.8 12.8s38.4 19.2 38.4 38.4v889.6l896 6.4c19.2 0 38.4 19.2 38.4 38.4s-19.2 32-38.4 32z" p-id="4245"></path><path d="M179.2 832v-128c0-19.2 19.2-38.4 38.4-38.4s38.4 19.2 38.4 38.4v128c0 19.2-19.2 38.4-38.4 38.4s-38.4-12.8-38.4-38.4zM377.6 832V601.6c0-19.2 19.2-38.4 38.4-38.4s38.4 19.2 38.4 38.4V832c0 19.2-19.2 38.4-38.4 38.4-25.6 0-38.4-12.8-38.4-38.4zM569.6 832v-128c0-19.2 19.2-38.4 38.4-38.4s38.4 19.2 38.4 38.4v128c0 19.2-19.2 38.4-38.4 38.4s-38.4-12.8-38.4-38.4zM768 832v-192c0-19.2 19.2-38.4 38.4-38.4s38.4 19.2 38.4 38.4v192c0 19.2-19.2 38.4-38.4 38.4s-38.4-12.8-38.4-38.4zM800 102.4h-140.8c-19.2 0-38.4 19.2-38.4 38.4s19.2 38.4 38.4 38.4h57.6L531.2 364.8 460.8 294.4c-12.8-19.2-38.4-19.2-57.6-6.4L192 505.6c-12.8 12.8-12.8 38.4 0 51.2 12.8 19.2 38.4 19.2 51.2 0l185.6-185.6 64 64 6.4 6.4V448c12.8 12.8 38.4 12.8 51.2 0L768 236.8v57.6c0 19.2 19.2 38.4 38.4 38.4s38.4-19.2 38.4-38.4V147.2c0-19.2-19.2-44.8-44.8-44.8z" p-id="4246"></path></svg>