<?xml version="1.0" standalone="no"?><!DOCTYPE svg PUBLIC "-//W3C//DTD SVG 1.1//EN" "http://www.w3.org/Graphics/SVG/1.1/DTD/svg11.dtd"><svg t="1647238674601" class="icon" viewBox="0 0 1024 1024" version="1.1" xmlns="http://www.w3.org/2000/svg" p-id="1907" width="400" height="400" xmlns:xlink="http://www.w3.org/1999/xlink"><defs><style type="text/css"></style></defs><path d="M768 319.616l-64 0 0-32c0-123.776-100.288-224-224-224S256 163.84 256 287.616l0 32L192 319.616c-70.656 0-128 57.344-128 128l0 384c0 70.656 57.344 128 128 128l576 0c70.656 0 128-57.344 128-128l0-384C896 376.896 838.656 319.616 768 319.616zM320 287.616c0-88.384 71.616-160 160-160s160 71.616 160 160l0 32L320 319.616 320 287.616zM832 831.616c0 35.392-28.608 64-64 64L192 895.616c-35.392 0-64-28.608-64-64l0-384c0-35.392 28.608-64 64-64l64 0 0 96c0 17.664 14.336 32 32 32S320 497.28 320 479.616l0-96 320 0 0 96c0 17.664 14.336 32 32 32S704 497.28 704 479.616l0-96 64 0c35.392 0 64 28.608 64 64L832 831.616zM587.136 647.232 512 722.368 512 543.616c0-17.664-14.336-32-32-32S448 525.888 448 543.616l0 178.752-75.136-75.136c-12.032-12.032-31.488-12.032-43.52 0s-12.032 31.424 0 43.456l122.24 122.176c5.12 10.88 15.616 18.752 28.416 18.752 4.288 0 7.872-2.048 11.648-3.584 0.64-0.192 1.28-0.32 1.856-0.576 2.752-1.344 5.056-2.752 7.296-4.864 0.768-0.64 1.664-0.896 2.368-1.6 2.368-2.368 3.84-5.184 5.312-7.936 0.256-0.576 0.896-0.832 1.088-1.344l121.088-121.024c12.032-12.032 12.032-31.424 0-43.456S599.104 635.2 587.136 647.232z" p-id="1908"></path></svg>