<?xml version="1.0" standalone="no"?><!DOCTYPE svg PUBLIC "-//W3C//DTD SVG 1.1//EN" "http://www.w3.org/Graphics/SVG/1.1/DTD/svg11.dtd"><svg t="1648131116012" class="icon" viewBox="0 0 1024 1024" version="1.1" xmlns="http://www.w3.org/2000/svg" p-id="2507" width="400" height="400" xmlns:xlink="http://www.w3.org/1999/xlink"><defs><style type="text/css"></style></defs><path d="M781.37856 557.19424v318.96064c0 27.12064-11.03872 49.152-38.4 49.152-27.31008 0-40.11008-22.03136-40.11008-49.152v-318.96064c-75.99616-21.48864-138.79808-90.18368-138.79808-172.55936V286.31552c0-99.51744 81.2544-180.21376 181.46816-180.21376 100.23936 0 174.66368 80.6912 174.66368 180.21376v98.31936c0 82.37568-62.8224 151.07072-138.82368 172.55936zM345.74848 493.27616v382.87872c0 27.12064-7.88992 49.152-38.66624 49.152-30.7968 0-42.9312-22.03136-42.9312-49.152v-382.8736c-62.40256-13.07136-129.9456-47.2832-163.1488-93.80352V138.86464c0-18.09408 20.05504-32.76288 40.56064-32.76288 20.5312 0 40.58624 14.6688 40.58624 32.76288v212.65408H209.90976V138.86464c0-18.09408 20.90496-32.76288 41.44128-32.76288 20.5056 0 39.7056 14.6688 39.7056 32.76288v212.65408h28.64128V138.86464c0-18.09408 19.1744-32.76288 39.7056-32.76288s41.44128 14.6688 41.44128 32.76288v212.65408H428.60544V138.86464c0-18.09408 20.04992-32.76288 40.55552-32.76288 20.53632 0 40.59136 14.6688 40.59136 32.76288v260.608c-33.2032 46.52544-101.632 80.73728-164.00384 93.80352z" p-id="2508"></path></svg>