<?xml version="1.0" standalone="no"?><!DOCTYPE svg PUBLIC "-//W3C//DTD SVG 1.1//EN" "http://www.w3.org/Graphics/SVG/1.1/DTD/svg11.dtd"><svg t="1641378303837" class="icon" viewBox="0 0 1024 1024" version="1.1" xmlns="http://www.w3.org/2000/svg" p-id="8062" xmlns:xlink="http://www.w3.org/1999/xlink" width="400" height="400"><defs><style type="text/css"></style></defs><path d="M96 409.9c17.7 0 32-14.3 32-32l0-289.5c0-13.4 10.9-24.4 24.4-24.4l719.2 0c17.7 0 32-14.3 32-32s-14.3-32-32-32L152.4 0c-48.7 0-88.4 39.6-88.4 88.4l0 289.5C64 395.6 78.3 409.9 96 409.9z" p-id="8063"></path><path d="M928 649.4c-17.7 0-32 14.3-32 32l0 254.2c0 13.4-10.9 24.4-24.4 24.4L152.4 960c-13.4 0-24.4-10.9-24.4-24.4l0-37.6c0-17.7-14.3-32-32-32s-32 14.3-32 32l0 37.6c0 48.7 39.6 88.4 88.4 88.4l719.2 0c48.7 0 88.4-39.6 88.4-88.4L960 681.4C960 663.7 945.7 649.4 928 649.4z" p-id="8064"></path><path d="M297.7 937.5c8.5 0 15.9-3.1 22.1-9.3 6.2-6.2 9.3-13.5 9.3-22.1L329.1 765.3 547 765.3c8.5 0 15.8-3.1 22.1-9.3 6.2-6.2 9.3-13.5 9.3-22.1L578.4 545.1c0-8.5-3.1-15.8-9.3-22.1-6.1-6.2-13.4-9.3-21.9-9.3-0.1 0-0.1 0-0.2 0L329.1 513.7 329.1 373.3c0-8.5-3.1-15.8-9.3-22.1-6.1-6.2-13.4-9.3-21.9-9.3-0.1 0-0.1 0-0.2 0-8.5 0-15.9 3.1-22.1 9.3L9.3 617.7c-6.2 6.2-9.3 13.5-9.3 22.1 0 8.5 3.1 15.8 9.3 22.1L275.7 928.2C281.9 934.4 289.2 937.5 297.7 937.5zM265.1 765.3l0 61.8L77.7 639.7 265.1 452.4l0 61.4 0 64 64 0 185.2 0 0 123.5L329.1 701.3l-64 0L265.1 765.3z" p-id="8065"></path><path d="M995.9 412.1l-60.1-60.1 60.1-60.1c37.4-37.4 37.4-98.3 0-135.8-18.1-18.1-42.2-28.1-67.9-28.1-25.6 0-49.7 10-67.9 28.1L800 216.2l-60.1-60.1c-18.1-18.1-42.2-28.1-67.9-28.1-25.6 0-49.7 10-67.9 28.1-37.4 37.4-37.4 98.3 0 135.8l60.1 60.1-60.1 60.1C586 430.2 576 454.3 576 480c0 25.6 10 49.8 28.1 67.9 18.1 18.1 42.2 28.1 67.9 28.1 25.6 0 49.7-10 67.9-28.1l60.1-60.1 60.1 60.1c18.1 18.1 42.2 28.1 67.9 28.1 25.6 0 49.7-10 67.9-28.1 18.1-18.1 28.1-42.2 28.1-67.9C1024 454.3 1014 430.2 995.9 412.1zM950.6 502.6c-6.2 6.2-14.4 9.4-22.6 9.4-8.2 0-16.4-3.1-22.6-9.4L800 397.2l-105.4 105.4c-6.2 6.2-14.4 9.4-22.6 9.4-8.2 0-16.4-3.1-22.6-9.4-12.5-12.5-12.5-32.8 0-45.3l105.4-105.4-105.4-105.4c-12.5-12.5-12.5-32.8 0-45.3 6.2-6.2 14.4-9.4 22.6-9.4 8.2 0 16.4 3.1 22.6 9.4L800 306.7l105.4-105.4c6.2-6.2 14.4-9.4 22.6-9.4 8.2 0 16.4 3.1 22.6 9.4 12.5 12.5 12.5 32.8 0 45.3L845.3 352l105.4 105.4C963.1 469.8 963.1 490.1 950.6 502.6z" p-id="8066"></path></svg>