<?xml version="1.0" standalone="no"?><!DOCTYPE svg PUBLIC "-//W3C//DTD SVG 1.1//EN" "http://www.w3.org/Graphics/SVG/1.1/DTD/svg11.dtd"><svg t="1637580276580" class="icon" viewBox="0 0 1024 1024" version="1.1" xmlns="http://www.w3.org/2000/svg" p-id="20864" xmlns:xlink="http://www.w3.org/1999/xlink" width="300" height="300"><defs><style type="text/css"></style></defs><path d="M832 146.5H188.5c-53 0-96 43.1-96 96v460c0 53 43.1 96 96 96h120.1c15.9 0 28.8-12.9 28.8-28.8s-13-28.7-28.9-28.7h-120c-21.2 0-38.4-17.2-38.4-38.4v-460c0-21.2 17.2-38.4 38.4-38.4H832c21.2 0 38.4 17.2 38.4 38.4v460c0 21.2-17.2 38.4-38.4 38.4H712c-15.9 0-28.8 12.9-28.8 28.8s12.9 28.8 28.8 28.8h120c53 0 96-43.1 96-96v-460c0-53-43.1-96.1-96-96.1z" p-id="20865"></path><path d="M769.5 621.9V319.4c0-15.8-13-28.8-28.8-28.8h-461c-15.8 0-28.8 13-28.8 28.8v302.5c0 15.8 13 28.8 28.8 28.8h461c15.9 0 28.8-12.9 28.8-28.8zM536.4 700.3c-15.6-15.3-41-15.4-56.6 0L351.6 826.5c-11.7 11.5-15.3 28.8-9 44 6.2 15.2 20.9 25.1 37.3 25.1h256.2c16.5 0 31.1-9.8 37.4-25.1 6.2-15.2 2.7-32.5-9-44L536.4 700.3zM422.1 838l86-84.7 86 84.7h-172z" p-id="20866"></path></svg>