<?xml version="1.0" standalone="no"?><!DOCTYPE svg PUBLIC "-//W3C//DTD SVG 1.1//EN" "http://www.w3.org/Graphics/SVG/1.1/DTD/svg11.dtd"><svg t="1644223277511" class="icon" viewBox="0 0 1024 1024" version="1.1" xmlns="http://www.w3.org/2000/svg" p-id="12133" xmlns:xlink="http://www.w3.org/1999/xlink" width="400" height="400"><defs><style type="text/css"></style></defs><path d="M248.96 451.2A512 512 0 0 0 501.12 512a512 512 0 0 0 251.52-60.16 195.2 195.2 0 0 0 112.64-163.84 197.12 197.12 0 0 0-114.56-164.48 547.2 547.2 0 0 0-503.04 0 195.2 195.2 0 0 0-112.64 163.2 196.48 196.48 0 0 0 113.92 164.48z m30.72-273.28A448 448 0 0 1 499.2 128a448 448 0 0 1 219.52 52.48 137.6 137.6 0 0 1 82.56 109.44 135.68 135.68 0 0 1-81.28 108.16 485.12 485.12 0 0 1-439.68 0 136.96 136.96 0 0 1-81.28-111.36 135.68 135.68 0 0 1 80.64-108.16zM248.96 676.48a512 512 0 0 0 252.16 64 32 32 0 0 0 0-64 448 448 0 0 1-220.16-55.68 136.96 136.96 0 0 1-81.92-113.28h-32l-32 4.48a197.12 197.12 0 0 0 113.92 164.48zM248.96 901.12a512 512 0 0 0 252.16 64 34.56 34.56 0 0 0 32.64-32 32 32 0 0 0-32-32 448 448 0 0 1-220.16-52.48 136.96 136.96 0 0 1-81.92-113.28h-32l-32 4.48a197.12 197.12 0 0 0 113.28 161.28zM789.12 613.76c-16 34.56-44.8 34.56-60.8 0a16 16 0 0 0-19.2-8.96 179.2 179.2 0 0 0-73.6 42.24 16 16 0 0 0 0 21.12 39.68 39.68 0 0 1 8.96 40.32 39.68 39.68 0 0 1-39.68 12.16 16 16 0 0 0-17.28 12.16 165.12 165.12 0 0 0 0 85.12 15.36 15.36 0 0 0 17.28 12.16 39.04 39.04 0 0 1 39.68 12.16 39.68 39.68 0 0 1-8.96 40.32 16 16 0 0 0 0 21.12 179.2 179.2 0 0 0 73.6 42.24h4.48a16 16 0 0 0 14.72-9.6c16-34.56 44.8-34.56 60.8 0a16 16 0 0 0 19.2 8.96 178.56 178.56 0 0 0 73.6-42.24 16 16 0 0 0 0-21.12 39.68 39.68 0 0 1-8.96-40.32c5.76-9.6 20.48-14.08 39.68-12.16a14.72 14.72 0 0 0 17.28-12.16 163.2 163.2 0 0 0 0-85.12 15.36 15.36 0 0 0-17.28-12.16 39.04 39.04 0 0 1-39.68-12.16 39.68 39.68 0 0 1 8.96-40.32 16 16 0 0 0 0-21.12 178.56 178.56 0 0 0-73.6-42.24 16 16 0 0 0-19.2 9.6z m64 48a58.24 58.24 0 0 0 52.48 91.52 120.32 120.32 0 0 1 0 44.16 58.24 58.24 0 0 0-52.48 91.52 147.2 147.2 0 0 1-38.4 21.76 58.88 58.88 0 0 0-104.96 0 146.56 146.56 0 0 1-38.4-21.76 58.24 58.24 0 0 0-53.12-91.52 128 128 0 0 1 0-22.4 133.12 133.12 0 0 1 0-22.4 58.24 58.24 0 0 0 53.12-91.52A145.92 145.92 0 0 1 704 640a58.88 58.88 0 0 0 104.96 0 147.2 147.2 0 0 1 40.96 21.12z" fill="#ffffff" p-id="12134"></path><path d="M759.04 775.04m-26.24 0a26.24 26.24 0 1 0 52.48 0 26.24 26.24 0 1 0-52.48 0Z" fill="#ffffff" p-id="12135"></path></svg>